<svg aria-hidden="true" xmlns="http://www.w3.org/2000/svg" xmlns:xlink="http://www.w3.org/1999/xlink"><symbol viewBox="0 0 18 12" fill="none" id="arrow" xmlns="http://www.w3.org/2000/svg">
<path fill-rule="evenodd" clip-rule="evenodd" d="M11.7929 0.792893C12.1834 0.402369 12.8166 0.402369 13.2071 0.792893L17.7071 5.29289C18.0976 5.68342 18.0976 6.31658 17.7071 6.70711L13.2071 11.2071C12.8166 11.5976 12.1834 11.5976 11.7929 11.2071C11.4024 10.8166 11.4024 10.1834 11.7929 9.79289L14.5858 7H1C0.447715 7 0 6.55228 0 6C0 5.44772 0.447715 5 1 5H14.5858L11.7929 2.20711C11.4024 1.81658 11.4024 1.18342 11.7929 0.792893Z" fill="currentColor"/>
</symbol><symbol viewBox="0 0 40 40" fill="none" id="chat" xmlns="http://www.w3.org/2000/svg">
<path fill-rule="evenodd" clip-rule="evenodd" d="M36.5387 17.6113C36.3013 19.2559 35.7387 20.8189 34.905 22.2563C34.9675 22.6121 34.9996 22.9719 34.9996 23.3331C34.9996 24.5878 34.636 25.7886 33.9626 26.8796C33.6264 27.4242 33.5399 28.0623 33.5067 28.4839C33.4685 28.9671 33.4814 29.4958 33.5159 30.0037C33.5546 30.5735 33.6246 31.1717 33.7048 31.736C33.0543 31.5463 32.3492 31.3558 31.6763 31.204C31.1166 31.0777 30.5439 30.9701 30.0252 30.9165C29.5727 30.8698 28.9188 30.8336 28.3341 31.0226C27.0556 31.4359 25.6488 31.6665 24.1662 31.6665C22.403 31.6665 20.7837 31.3535 19.3643 30.8098C19.0229 30.8253 18.679 30.8331 18.3328 30.8331C16.3252 30.8331 14.3929 30.5691 12.585 30.0811C15.2132 33.1209 19.546 34.9998 24.1662 34.9998C25.9711 34.9998 27.7034 34.7227 29.2999 34.2135C29.3027 34.2136 29.3078 34.2135 29.3153 34.2133C29.3563 34.2125 29.4701 34.2103 29.6827 34.2322C30.017 34.2667 30.4469 34.3438 30.9428 34.4556C31.9301 34.6783 33.0395 35.007 33.9041 35.2814C35.7377 35.8635 37.5143 34.2634 37.1866 32.4027C37.0456 31.6019 36.899 30.6245 36.8415 29.7778C36.8126 29.3521 36.8094 29.0026 36.8297 28.7462C36.8381 28.6399 36.8488 28.5733 36.8556 28.5379C37.7933 26.9846 38.3329 25.216 38.3329 23.3331C38.3329 21.2105 37.6736 19.2723 36.5387 17.6113Z" fill="currentColor"/>
<path fill-rule="evenodd" clip-rule="evenodd" d="M9.32773 9.49661C7.08113 11.2146 5.83266 13.4698 5.83266 15.833C5.83266 17.0114 6.13943 18.1463 6.71496 19.2017C6.93417 19.6037 6.99636 20.0183 7.0186 20.299C7.04285 20.6051 7.03076 20.9197 7.00414 21.2139C6.95085 21.8028 6.82372 22.4701 6.67124 23.1274C6.49287 23.8962 6.26431 24.7162 6.03239 25.486C6.91281 25.166 7.87508 24.8381 8.78733 24.5719C9.52461 24.3568 10.2692 24.1702 10.9318 24.0654C11.5027 23.9751 12.3311 23.8864 13.0443 24.1332C14.6448 24.6869 16.4353 24.9997 18.3327 24.9997C21.9113 24.9997 25.0895 23.8886 27.3376 22.1694C29.5842 20.4514 30.8327 18.1962 30.8327 15.833C30.8327 13.4698 29.5842 11.2146 27.3376 9.49661C25.0895 7.77745 21.9113 6.66634 18.3327 6.66634C14.754 6.66634 11.5759 7.77745 9.32773 9.49661ZM7.30289 6.84875C10.1821 4.64702 14.0872 3.33301 18.3327 3.33301C22.5781 3.33301 26.4832 4.64702 29.3624 6.84875C32.2431 9.05167 34.166 12.2131 34.166 15.833C34.166 19.4529 32.2431 22.6143 29.3624 24.8173C26.4832 27.019 22.5781 28.333 18.3327 28.333C16.0942 28.333 13.9561 27.9681 12.0148 27.3041C12.0128 27.3095 11.8554 27.2941 11.4524 27.3578C10.988 27.4313 10.3952 27.5751 9.72089 27.7719C8.37845 28.1635 6.87087 28.7176 5.72255 29.1645C3.73317 29.9387 1.70658 28.0281 2.37685 25.9929C2.7321 24.9142 3.15108 23.5511 3.42414 22.3741C3.5617 21.7812 3.65096 21.2827 3.68437 20.9135C3.69596 20.7853 3.69896 20.6919 3.69829 20.6288C2.93115 19.1629 2.49932 17.5417 2.49932 15.833C2.49932 12.2131 4.42216 9.05167 7.30289 6.84875ZM3.6928 20.5379C3.69296 20.5377 3.69377 20.5422 3.69475 20.5518C3.69313 20.5429 3.69264 20.5381 3.6928 20.5379Z" fill="currentColor"/>
</symbol><symbol viewBox="0 0 16 16" fill="none" id="close" xmlns="http://www.w3.org/2000/svg">
<path fill-rule="evenodd" clip-rule="evenodd" d="M0.292893 0.292893C0.683417 -0.0976311 1.31658 -0.0976311 1.70711 0.292893L7.99999 6.58578L14.2929 0.292893C14.6834 -0.0976313 15.3166 -0.0976307 15.7071 0.292894C16.0976 0.683418 16.0976 1.31658 15.7071 1.70711L9.41421 7.99999L15.7071 14.2929C16.0976 14.6834 16.0976 15.3166 15.7071 15.7071C15.3166 16.0976 14.6834 16.0976 14.2929 15.7071L7.99999 9.41421L1.70711 15.7071C1.31658 16.0976 0.683418 16.0976 0.292894 15.7071C-0.0976307 15.3166 -0.0976313 14.6834 0.292893 14.2929L6.58578 7.99999L0.292893 1.70711C-0.0976311 1.31658 -0.0976311 0.683417 0.292893 0.292893Z" fill="currentColor"/>
</symbol><symbol viewBox="0 0 16 14" fill="none" id="heart" xmlns="http://www.w3.org/2000/svg">
<path fill-rule="evenodd" clip-rule="evenodd" d="M7.99925 12.2715C4.93321 10.5252 3.22318 8.78955 2.39626 7.28361C1.54992 5.74228 1.62377 4.4441 2.0934 3.52273C3.05872 1.62892 5.80378 1.02333 7.4763 3.13865L7.99921 3.80001L8.52217 3.13868C10.195 1.02327 12.9402 1.62896 13.9055 3.52273C14.3751 4.44408 14.4489 5.74226 13.6025 7.28359C12.7756 8.78954 11.0654 10.5252 7.99925 12.2715ZM7.99928 1.73726C5.64647 -0.498482 2.17555 0.425546 0.905488 2.91723C0.20846 4.2847 0.198939 6.05212 1.22753 7.92536C2.247 9.78198 4.2796 11.7417 7.67675 13.6194L7.99924 13.7976L8.32173 13.6194C11.719 11.7417 13.7517 9.78199 14.7712 7.92537C15.7999 6.05214 15.7904 4.28472 15.0934 2.91723C13.8233 0.425498 10.3523 -0.498448 7.99928 1.73726Z" fill="currentColor"/>
</symbol><symbol viewBox="0 0 24 24" fill="none" id="load-more" xmlns="http://www.w3.org/2000/svg">
<path fill-rule="evenodd" clip-rule="evenodd" d="M2.09961 2C2.65189 2 3.09961 2.44772 3.09961 3V7.43632C4.75764 4.20928 8.11959 2 11.9996 2C16.3552 2 20.058 4.78413 21.4303 8.66675C21.6144 9.18747 21.3414 9.75879 20.8207 9.94284C20.3 10.1269 19.7287 9.85396 19.5446 9.33325C18.4459 6.22472 15.4813 4 11.9996 4C9.03957 4 6.45326 5.60799 5.06955 8H8.09957C8.65186 8 9.09957 8.44772 9.09957 9C9.09957 9.55228 8.65186 10 8.09957 10H2.09961C1.54732 10 1.09961 9.55228 1.09961 9V3C1.09961 2.44772 1.54732 2 2.09961 2Z" fill="currentColor"/>
<path fill-rule="evenodd" clip-rule="evenodd" d="M3.17664 14.0572C3.69736 13.8731 4.26868 14.146 4.45273 14.6668C5.55144 17.7753 8.51608 20 11.9978 20C14.9578 20 17.5441 18.392 18.9278 16H15.8978C15.3455 16 14.8978 15.5523 14.8978 15C14.8978 14.4477 15.3455 14 15.8978 14H21.8977C22.45 14 22.8977 14.4477 22.8977 15V21C22.8977 21.5523 22.45 22 21.8977 22C21.3455 22 20.8977 21.5523 20.8977 21V16.5637C19.2397 19.7907 15.8778 22 11.9978 22C7.64215 22 3.93936 19.2159 2.56705 15.3332C2.383 14.8125 2.65593 14.2412 3.17664 14.0572Z" fill="currentColor"/>
</symbol><symbol viewBox="0 0 24 38" fill="none" id="phone" xmlns="http://www.w3.org/2000/svg">
<path fill-rule="evenodd" clip-rule="evenodd" d="M6.16634 3.86947C4.78563 3.86947 3.66634 4.98875 3.66634 6.36947V31.6299C3.66634 33.0106 4.78563 34.1299 6.16634 34.1299H17.833C19.2137 34.1299 20.333 33.0106 20.333 31.6299V6.36947C20.333 4.98875 19.2137 3.86947 17.833 3.86947H17.694L17.2881 4.84355C17.0293 5.46458 16.4225 5.86909 15.7497 5.86909H8.24968C7.57688 5.86909 6.97006 5.46458 6.71126 4.84355L6.30531 3.86947H6.16634ZM0.333008 6.36947C0.333008 3.1478 2.94468 0.536133 6.16634 0.536133H17.833C21.0547 0.536133 23.6663 3.1478 23.6663 6.36947V31.6299C23.6663 34.8515 21.0547 37.4632 17.833 37.4632H6.16634C2.94468 37.4632 0.333008 34.8515 0.333008 31.6299V6.36947Z" fill="currentColor"/>
</symbol><symbol viewBox="0 0 19 22" fill="none" id="play" xmlns="http://www.w3.org/2000/svg">
<path d="M18.5 10.134C19.1667 10.5189 19.1667 11.4811 18.5 11.866L2 21.3923C1.33333 21.7772 0.499999 21.2961 0.499999 20.5263L0.5 1.47372C0.5 0.703921 1.33333 0.222794 2 0.607695L18.5 10.134Z" fill="currentColor"/>
</symbol><symbol viewBox="0 0 16 14" fill="none" id="share-arrow" xmlns="http://www.w3.org/2000/svg">
<path d="M0.667318 6.82816L6.7625 0.166016V4.14077H8.05839C12.0766 4.14077 15.334 7.38764 15.334 11.393V13.4993L14.7584 12.8706C12.8014 10.7333 10.0324 9.51556 7.1293 9.51556H6.7625V13.4903L0.667318 6.82816Z" fill="currentColor"/>
</symbol><symbol viewBox="0 0 12 22" fill="none" id="social-facebook" xmlns="http://www.w3.org/2000/svg">
<path d="M11.5628 0.00457747L8.78558 0C5.66542 0 3.64903 2.12509 3.64903 5.41423V7.91055H0.85662C0.615322 7.91055 0.419922 8.1115 0.419922 8.35937V11.9763C0.419922 12.2241 0.615545 12.4249 0.85662 12.4249H3.64903V21.5514C3.64903 21.7993 3.84443 22 4.08573 22H7.72904C7.97033 22 8.16573 21.799 8.16573 21.5514V12.4249H11.4307C11.672 12.4249 11.8674 12.2241 11.8674 11.9763L11.8688 8.35937C11.8688 8.24036 11.8226 8.12638 11.7409 8.04215C11.6591 7.95793 11.5477 7.91055 11.4318 7.91055H8.16573V5.79439C8.16573 4.77728 8.40168 4.26094 9.6915 4.26094L11.5624 4.26025C11.8035 4.26025 11.9989 4.0593 11.9989 3.81166V0.453169C11.9989 0.205757 11.8037 0.00503522 11.5628 0.00457747Z" fill="currentColor"/>
</symbol><symbol viewBox="0 0 18 18" fill="none" id="social-linked" xmlns="http://www.w3.org/2000/svg">
<path d="M17.3285 17.3327L17.3327 17.332V11.2195C17.3327 8.22921 16.6889 5.92574 13.1931 5.92574C11.5125 5.92574 10.3848 6.84796 9.92435 7.72227H9.87574V6.2049H6.56115V17.332H10.0125V11.8223C10.0125 10.3716 10.2875 8.9688 12.0841 8.9688C13.8542 8.9688 13.8806 10.6244 13.8806 11.9153V17.3327H17.3285Z" fill="currentColor"/>
<path d="M0.941011 6.2056H4.39657V17.3327H0.941011V6.2056Z" fill="currentColor"/>
<path d="M2.6674 0.666016C1.56254 0.666016 0.666016 1.56254 0.666016 2.6674C0.666016 3.77227 1.56254 4.68754 2.6674 4.68754C3.77227 4.68754 4.66879 3.77227 4.66879 2.6674C4.6681 1.56254 3.77157 0.666016 2.6674 0.666016Z" fill="currentColor"/>
</symbol><symbol viewBox="0 0 20 20" fill="none" id="social-messanger" xmlns="http://www.w3.org/2000/svg">
<path d="M10 0C4.4775 0 0 4.145 0 9.25875C0 12.1725 1.45375 14.7712 3.72625 16.4688V20L7.13125 18.1313C8.04 18.3825 9.0025 18.5187 10 18.5187C15.5225 18.5187 20 14.3737 20 9.26C20 4.14625 15.5225 0 10 0ZM10.9937 12.4688L8.4475 9.7525L3.47875 12.4688L8.945 6.66625L11.5538 9.3825L16.46 6.66625L10.9937 12.4688Z" fill="currentColor"/>
</symbol><symbol viewBox="0 0 22 18" fill="none" id="social-twitter" xmlns="http://www.w3.org/2000/svg">
<path d="M21.5 2.77233C20.7271 3.10027 19.8978 3.32267 19.0264 3.42196C19.9161 2.91181 20.5972 2.10263 20.92 1.1414C20.0854 1.61383 19.1642 1.95688 18.1826 2.14285C17.3966 1.33994 16.2785 0.839844 15.0384 0.839844C12.6593 0.839844 10.7303 2.68691 10.7303 4.9637C10.7303 5.2866 10.7683 5.60199 10.8418 5.90357C7.26201 5.73141 4.08768 4.08917 1.96314 1.59372C1.59176 2.20189 1.38049 2.91053 1.38049 3.66697C1.38049 5.09814 2.14161 6.36093 3.2964 7.09973C2.5904 7.07713 1.92639 6.89116 1.34508 6.58205V6.63357C1.34508 8.63141 2.83056 10.2988 4.80024 10.6783C4.43936 10.7713 4.05882 10.8228 3.66514 10.8228C3.38696 10.8228 3.11794 10.7964 2.85417 10.7461C3.40267 12.3859 4.99315 13.5783 6.87756 13.611C5.40388 14.7167 3.54573 15.3739 1.52749 15.3739C1.17976 15.3739 0.837236 15.3537 0.5 15.3173C2.40671 16.4896 4.67036 17.1732 7.10327 17.1732C15.028 17.1732 19.3597 10.8881 19.3597 5.43741L19.3453 4.90341C20.1917 4.32537 20.9239 3.59912 21.5 2.77233Z" fill="currentColor"/>
</symbol><symbol viewBox="0 0 20 20" fill="none" id="social-whatsapp" xmlns="http://www.w3.org/2000/svg">
<path d="M20 9.74244C20 15.1231 15.6047 19.4849 10.1818 19.4849C8.46022 19.4849 6.84289 19.0449 5.43578 18.2727L0 20L1.77222 14.7729C0.878222 13.3049 0.363333 11.5831 0.363333 9.74244C0.363333 4.36178 4.75911 0 10.1818 0C15.6051 0 20 4.36178 20 9.74244ZM10.1818 1.55156C5.62978 1.55156 1.92711 5.226 1.92711 9.74244C1.92711 11.5347 2.51133 13.1944 3.49956 14.5447L2.46822 17.5867L5.64044 16.5784C6.94378 17.4342 8.50511 17.9333 10.182 17.9333C14.7333 17.9333 18.4367 14.2593 18.4367 9.74289C18.4367 5.22644 14.7336 1.55156 10.1818 1.55156ZM15.1398 11.9862C15.0791 11.8869 14.9189 11.8269 14.6784 11.7076C14.4376 11.5882 13.254 11.0102 13.034 10.9309C12.8133 10.8513 12.6524 10.8113 12.4922 11.0502C12.332 11.2893 11.8707 11.8269 11.73 11.9862C11.5896 12.146 11.4493 12.166 11.2084 12.0464C10.968 11.9271 10.1927 11.6747 9.27333 10.8613C8.558 10.2284 8.07489 9.44711 7.93444 9.20778C7.79422 8.96889 7.91978 8.83978 8.04 8.72089C8.14844 8.61378 8.28089 8.442 8.40111 8.30267C8.52178 8.16311 8.56178 8.06378 8.64156 7.90422C8.72222 7.74489 8.682 7.60556 8.62156 7.48578C8.56156 7.36644 8.07978 6.19133 7.87933 5.71311C7.67889 5.23533 7.47867 5.31489 7.338 5.31489C7.19778 5.31489 7.03711 5.29489 6.87667 5.29489C6.71622 5.29489 6.45533 5.35467 6.23467 5.59356C6.01422 5.83267 5.39267 6.41044 5.39267 7.58533C5.39267 8.76044 6.25467 9.89578 6.37533 10.0549C6.49556 10.214 8.03978 12.7038 10.4864 13.66C12.9333 14.6158 12.9333 14.2969 13.3747 14.2569C13.8156 14.2171 14.7982 13.6793 14.9996 13.122C15.1996 12.5638 15.1996 12.0858 15.1398 11.9862Z" fill="currentColor"/>
</symbol><symbol viewBox="0 0 24 18" fill="none" id="social-youtube" xmlns="http://www.w3.org/2000/svg">
<path fill-rule="evenodd" clip-rule="evenodd" d="M21.3903 1.11358C22.4182 1.39044 23.2288 2.20086 23.5055 3.22899C24.0197 5.10691 23.9999 9.02132 23.9999 9.02132C23.9999 9.02132 23.9999 12.9158 23.5057 14.7939C23.2288 15.8218 22.4184 16.6324 21.3903 16.9091C19.5122 17.4035 12 17.4035 12 17.4035C12 17.4035 4.50731 17.4035 2.60961 16.8895C1.58148 16.6127 0.771054 15.802 0.4942 14.7741C0 12.9158 0 9.00154 0 9.00154C0 9.00154 0 5.10691 0.4942 3.22899C0.770871 2.20104 1.60125 1.37066 2.60943 1.09399C4.48753 0.599609 11.9998 0.599609 11.9998 0.599609C11.9998 0.599609 19.5122 0.599609 21.3903 1.11358ZM15.8549 9.00158L9.60788 12.5996V5.40355L15.8549 9.00158Z" fill="currentColor"/>
</symbol><symbol viewBox="0 0 16 9" fill="none" id="to-top" xmlns="http://www.w3.org/2000/svg">
<path fill-rule="evenodd" clip-rule="evenodd" d="M0.292893 8.70711C-0.0976311 8.31658 -0.0976311 7.68342 0.292893 7.29289L7.29289 0.292893C7.68342 -0.0976315 8.31658 -0.0976315 8.70711 0.292893L15.7071 7.29289C16.0976 7.68342 16.0976 8.31658 15.7071 8.70711C15.3166 9.09763 14.6834 9.09763 14.2929 8.70711L8 2.41421L1.70711 8.70711C1.31658 9.09763 0.683417 9.09763 0.292893 8.70711Z" fill="currentColor"/>
</symbol></svg>