<svg width="19" height="17" viewBox="0 0 19 17" fill="none" xmlns="http://www.w3.org/2000/svg">
<path fill-rule="evenodd" clip-rule="evenodd" d="M17.2692 7.80648C17.1505 8.62875 16.8692 9.41028 16.4524 10.129C16.4836 10.3069 16.4996 10.4867 16.4996 10.6674C16.4996 11.2947 16.3179 11.8951 15.9811 12.4406C15.8131 12.7129 15.7698 13.032 15.7532 13.2428C15.7341 13.4844 15.7405 13.7487 15.7578 14.0026C15.7771 14.2875 15.8121 14.5866 15.8522 14.8688C15.527 14.774 15.1744 14.6787 14.838 14.6028C14.5581 14.5397 14.2718 14.4859 14.0124 14.4591C13.7862 14.4357 13.4593 14.4176 13.1669 14.5121C12.5277 14.7188 11.8243 14.834 11.0829 14.834C10.2014 14.834 9.39169 14.6775 8.68199 14.4057C8.51128 14.4135 8.33933 14.4174 8.16626 14.4174C7.16242 14.4174 6.19626 14.2854 5.29232 14.0414C6.60645 15.5613 8.77285 16.5007 11.0829 16.5007C11.9854 16.5007 12.8516 16.3621 13.6498 16.1075C13.6512 16.1076 13.6537 16.1075 13.6575 16.1075C13.678 16.1071 13.7349 16.1059 13.8412 16.1169C14.0084 16.1342 14.2233 16.1727 14.4712 16.2286C14.9649 16.34 15.5196 16.5043 15.9519 16.6415C16.8687 16.9325 17.757 16.1325 17.5931 15.2022C17.5226 14.8018 17.4494 14.3131 17.4206 13.8897C17.4061 13.6768 17.4046 13.5021 17.4147 13.3739C17.4189 13.3208 17.4242 13.2875 17.4276 13.2697C17.8965 12.4931 18.1663 11.6088 18.1663 10.6674C18.1663 9.60608 17.8367 8.63695 17.2692 7.80648Z" fill="#787A80"/>
<path fill-rule="evenodd" clip-rule="evenodd" d="M3.66386 3.7488C2.54057 4.60779 1.91633 5.7354 1.91633 6.91699C1.91633 7.50619 2.06971 8.07366 2.35748 8.60135C2.46709 8.80234 2.49818 9.00966 2.5093 9.15001C2.52142 9.30305 2.51538 9.46034 2.50207 9.60743C2.47542 9.9019 2.41186 10.2356 2.33562 10.5642C2.24643 10.9486 2.13216 11.3586 2.0162 11.7435C2.4564 11.5835 2.93754 11.4195 3.39367 11.2865C3.76231 11.1789 4.13459 11.0856 4.46592 11.0332C4.75135 10.9881 5.16553 10.9437 5.52213 11.0671C6.3224 11.3439 7.21764 11.5003 8.16633 11.5003C9.95564 11.5003 11.5447 10.9448 12.6688 10.0852C13.7921 9.2262 14.4163 8.09859 14.4163 6.91699C14.4163 5.7354 13.7921 4.60779 12.6688 3.7488C11.5447 2.88922 9.95564 2.33366 8.16633 2.33366C6.37702 2.33366 4.78793 2.88922 3.66386 3.7488ZM2.65145 2.42487C4.09104 1.324 6.04362 0.666992 8.16633 0.666992C10.289 0.666992 12.2416 1.324 13.6812 2.42487C15.1216 3.52632 16.083 5.10704 16.083 6.91699C16.083 8.72694 15.1216 10.3077 13.6812 11.4091C12.2416 12.51 10.289 13.167 8.16633 13.167C7.04711 13.167 5.97805 12.9845 5.00739 12.6525C5.00641 12.6552 4.92769 12.6476 4.72623 12.6794C4.49402 12.7161 4.19761 12.7881 3.86045 12.8864C3.18922 13.0822 2.43543 13.3593 1.86128 13.5827C0.866586 13.9698 -0.146709 13.0145 0.188425 11.9969C0.36605 11.4576 0.575538 10.776 0.712072 10.1875C0.78085 9.89106 0.825482 9.64182 0.842185 9.45723C0.847982 9.39316 0.84948 9.34646 0.849146 9.31488C0.465576 8.58191 0.249662 7.77136 0.249662 6.91699C0.249662 5.10704 1.21108 3.52632 2.65145 2.42487Z" fill="#787A80"/>
</svg>
